 <svg version="1.0" xmlns="http://www.w3.org/2000/svg" width="200.000000pt" height="200.000000pt" viewBox="0 0 700.000000 700.000000" preserveAspectRatio="xMidYMid meet">
<metadata>
Created by potrace 1.12, written by Peter Selinger 2001-2015
</metadata>
<g transform="translate(0.000000,700.000000) scale(0.100000,-0.100000)" fill="#000000" stroke="none">
<path d="M2660 6989 c0 -5 -4 -7 -10 -4 -6 3 -7 -1 -4 -9 3 -9 12 -16 20 -16
8 0 14 -4 14 -10 0 -5 -4 -10 -9 -10 -16 0 -23 -38 -11 -60 6 -11 7 -20 3 -19
-4 1 -17 -2 -27 -6 -13 -6 -21 -4 -24 3 -2 7 -8 12 -13 12 -6 0 -7 -6 -3 -12
4 -7 -3 -3 -15 10 -23 23 -41 29 -41 13 0 -6 5 -13 10 -16 6 -3 10 -10 10 -16
0 -14 -40 -5 -51 12 -6 10 -9 8 -9 -11 0 -17 -3 -21 -8 -12 -5 7 -16 10 -25 6
-12 -4 -15 -13 -11 -33 4 -18 3 -22 -4 -12 -5 7 -12 9 -15 4 -9 -14 -1 -48 11
-49 25 -3 26 -5 9 -15 -14 -8 -23 -5 -44 15 -14 14 -30 23 -35 20 -5 -3 -18 2
-29 12 -17 15 -22 16 -29 4 -7 -12 -12 -11 -29 4 -21 19 -21 19 -21 -2 0 -15
-5 -19 -19 -15 -13 3 -21 -2 -25 -15 -8 -24 -52 -73 -59 -66 -3 3 -36 -9 -73
-27 -38 -18 -75 -34 -82 -35 -8 -1 -21 -9 -30 -17 -19 -17 -114 -47 -147 -47
-11 0 -42 -19 -67 -42 -44 -40 -47 -47 -50 -98 -3 -54 -3 -55 -38 -61 -55 -9
-217 -91 -229 -116 -6 -12 -7 -52 -4 -92 5 -63 3 -74 -17 -103 -19 -28 -86
-86 -188 -166 l-24 -18 21 -36 c23 -38 59 -56 67 -34 3 8 26 28 52 47 26 18
49 37 50 41 5 11 64 10 82 -2 12 -8 12 -12 0 -37 -8 -15 -29 -46 -47 -69 -18
-23 -33 -46 -33 -53 0 -6 -4 -11 -10 -11 -5 0 -10 -6 -10 -14 0 -7 -7 -19 -15
-26 -8 -7 -12 -17 -9 -22 3 -5 -2 -18 -11 -28 -17 -19 -17 -26 5 -140 13 -74
20 -135 16 -158 -10 -57 -12 -121 -4 -115 10 5 1 -124 -9 -140 -4 -7 -6 -22
-4 -34 1 -13 -2 -23 -6 -23 -5 0 -10 -17 -10 -37 -2 -38 -8 -90 -17 -128 -2
-11 -5 -26 -5 -32 -1 -7 -8 -13 -17 -13 -14 0 -14 -3 -3 -16 7 -9 9 -18 3 -22
-17 -12 -33 -71 -21 -75 11 -3 9 -24 -19 -251 -2 -16 -9 -33 -16 -37 -9 -6 -9
-11 0 -22 7 -7 9 -17 5 -21 -6 -6 -13 -67 -14 -118 0 -10 -4 -18 -9 -18 -4 0
-6 -17 -3 -39 3 -22 1 -41 -5 -45 -6 -4 -8 -14 -5 -22 3 -9 0 -20 -8 -26 -9
-6 -10 -11 -3 -14 6 -2 9 -18 6 -34 -3 -21 -8 -27 -21 -23 -12 4 -13 3 -2 -5
13 -9 12 -44 -6 -147 -18 -108 -20 -131 -16 -142 3 -7 -1 -13 -8 -13 -7 0 -10
-2 -7 -5 3 -4 2 -24 -3 -46 -5 -22 -11 -57 -14 -77 -3 -20 -14 -77 -26 -127
-11 -49 -20 -98 -20 -108 0 -9 -4 -15 -10 -12 -5 4 -9 1 -9 -4 0 -6 3 -11 8
-11 4 0 7 -11 7 -25 0 -14 -4 -25 -8 -25 -5 0 -7 -10 -6 -22 1 -13 -1 -31 -5
-40 -4 -9 -9 -25 -11 -35 -2 -10 -4 -19 -5 -20 -2 -2 -4 -15 -6 -30 -1 -16 -6
-48 -9 -73 -4 -25 -7 -57 -7 -72 -1 -16 -4 -28 -7 -28 -3 0 -7 -24 -9 -53 -6
-107 -16 -232 -29 -337 -3 -25 -6 -58 -8 -75 -2 -18 -8 -29 -15 -27 -8 2 -11
-6 -8 -23 4 -20 2 -25 -9 -21 -7 3 -23 -4 -35 -16 -14 -14 -23 -18 -26 -10 -2
7 -21 12 -42 12 -30 0 -40 5 -45 21 -5 16 -10 18 -21 8 -11 -9 -14 -8 -15 7
-1 11 0 23 1 29 1 5 -2 7 -6 2 -4 -4 -16 0 -26 10 -23 20 -24 6 -1 -19 21 -23
11 -35 -11 -13 -9 9 -16 12 -16 5 0 -17 -20 -1 -41 34 -15 25 -19 27 -19 11 1
-11 7 -28 15 -38 10 -15 11 -26 3 -50 -14 -42 -15 -42 -33 -27 -11 9 -15 9
-15 1 0 -7 -5 -9 -12 -5 -7 4 -8 3 -4 -4 4 -7 14 -12 22 -12 8 0 12 -5 9 -11
-4 -6 -14 -8 -22 -5 -11 4 -13 2 -10 -9 4 -8 -1 -19 -11 -25 -15 -8 -15 -11
-2 -20 13 -9 13 -12 -3 -24 -18 -14 -24 -32 -7 -21 6 3 10 1 10 -4 0 -6 -6
-11 -14 -11 -20 0 -30 -25 -40 -100 -3 -19 -12 -55 -21 -79 -12 -33 -14 -51
-6 -65 5 -12 11 -30 13 -40 2 -11 7 -18 12 -17 5 1 17 -10 27 -26 10 -15 19
-22 19 -15 0 7 5 10 11 6 6 -3 15 0 20 7 7 11 9 12 9 1 0 -8 9 -25 20 -39 24
-31 25 -43 5 -43 -8 0 -15 -4 -15 -10 0 -5 7 -7 15 -4 9 4 15 0 15 -8 0 -12
-11 -13 -62 -6 -75 10 -98 17 -98 28 0 4 -8 6 -17 4 -10 -3 -36 4 -58 16 -21
11 -44 20 -50 20 -7 0 -31 18 -56 40 -24 22 -53 43 -64 46 -11 4 -33 17 -48
30 -16 13 -32 22 -37 19 -4 -3 -14 2 -21 11 -11 14 -11 18 2 28 13 9 13 15 2
36 -7 14 -13 38 -13 53 0 16 -9 42 -20 58 -18 24 -26 27 -53 22 -39 -7 -57
-20 -57 -40 0 -12 7 -14 33 -8 52 11 62 11 59 -3 -1 -7 5 -26 15 -42 14 -24
14 -31 3 -45 -7 -9 -20 -13 -31 -10 -53 17 4 -37 87 -83 19 -10 22 -17 15 -31
-5 -9 -12 -36 -14 -59 -5 -48 -6 -51 -35 -57 -11 -2 -29 -8 -40 -14 -13 -7
-22 -7 -29 0 -13 13 -63 1 -63 -16 0 -7 21 -28 46 -48 l46 -36 -46 -23 -46
-22 0 -598 0 -599 67 37 c171 94 235 131 323 189 52 33 124 79 160 100 36 21
134 85 218 142 85 57 157 103 160 103 14 -1 72 -80 72 -98 0 -11 8 -37 19 -59
10 -21 28 -59 40 -86 l23 -47 -48 -68 c-50 -69 -114 -152 -314 -402 -63 -80
-139 -178 -168 -217 l-52 -73 1475 0 c891 0 1475 4 1475 9 0 5 7 17 17 26 12
13 13 19 4 25 -9 5 -6 9 9 13 24 6 19 27 -6 27 -9 0 -12 -5 -8 -12 5 -7 3 -8
-5 -3 -7 4 -11 18 -8 31 2 13 -2 29 -9 35 -20 17 -17 39 5 39 18 0 35 -31 32
-57 -2 -16 11 -17 26 -2 11 11 15 1 28 -88 4 -27 12 -43 20 -43 11 0 13 12 9
53 -3 28 -10 65 -15 81 -5 16 -9 56 -9 90 0 34 -7 93 -15 131 -9 39 -18 86
-21 105 -3 19 -9 44 -14 55 -5 11 -18 56 -30 100 -12 43 -26 86 -33 93 -6 8
-13 35 -15 61 -1 25 -7 50 -13 56 -16 15 0 -115 17 -140 17 -24 18 -35 2 -35
-21 1 -48 67 -48 115 0 24 -4 46 -9 49 -5 3 -12 25 -15 49 -4 25 -18 59 -31
78 -19 25 -25 45 -25 84 0 28 -4 55 -9 60 -14 14 -15 150 -2 215 6 30 14 72
18 94 4 28 14 43 34 55 15 8 29 26 32 38 2 13 2 23 0 23 -2 0 -25 -20 -51 -45
-25 -25 -50 -41 -54 -37 -10 10 45 104 89 151 20 22 37 32 47 28 9 -4 16 -2
16 2 0 5 3 17 6 26 6 14 3 14 -22 3 -69 -30 -96 -61 -151 -175 -43 -87 -68
-125 -116 -173 -33 -34 -71 -69 -84 -77 -13 -8 -28 -33 -35 -55 -9 -32 -44
-69 -52 -56 -1 2 -14 18 -29 36 -28 35 -28 56 0 45 13 -5 15 -3 9 13 -19 46
-18 54 18 90 20 20 36 41 36 46 0 6 12 19 26 30 14 11 23 26 20 34 -3 7 10 21
30 33 19 11 34 25 34 32 0 6 7 9 15 5 9 -3 15 0 15 8 0 22 29 74 45 80 8 3 15
16 15 29 0 15 12 33 30 47 21 16 29 29 24 42 -4 15 0 18 23 18 16 0 34 5 40
11 8 8 17 8 33 -1 18 -10 30 -9 61 6 50 22 50 39 1 38 -20 -1 -39 -2 -42 -4
-5 -2 -63 -9 -115 -13 -21 -2 -29 -7 -27 -17 2 -8 4 -19 5 -25 1 -5 -8 -14
-20 -20 -13 -5 -23 -19 -23 -31 0 -28 -5 -31 -39 -26 -20 3 -28 8 -24 18 3 8
12 14 20 14 8 0 12 4 9 8 -3 4 0 28 5 51 5 24 7 46 4 50 -9 9 -25 -21 -25 -49
0 -14 -4 -32 -10 -40 -8 -13 -9 -13 -14 0 -16 54 -18 56 -26 30 -4 -16 -12
-24 -23 -22 -9 2 -17 -2 -17 -7 0 -14 -92 -4 -102 12 -4 6 -8 20 -8 30 0 13
-5 17 -19 12 -12 -3 -21 0 -25 10 -8 22 -35 18 -56 -8 -21 -26 -30 -21 -33 19
-1 20 -12 36 -34 51 -17 12 -37 36 -44 53 -8 16 -18 30 -22 30 -5 0 -15 7 -23
15 -16 15 -11 35 8 35 6 0 26 14 45 30 18 17 43 30 54 30 21 0 21 0 2 47 -3 7
0 13 6 13 6 0 11 5 11 10 0 16 -42 70 -50 65 -4 -3 -11 5 -15 18 -3 13 -8 17
-11 10 -4 -8 -11 -9 -22 -3 -9 5 -24 11 -33 13 -52 16 50 120 171 175 92 41
198 72 246 72 26 0 43 4 39 10 -3 5 -12 7 -20 3 -8 -3 -15 0 -15 5 0 6 -9 14
-20 17 -13 4 -20 15 -20 31 0 25 -15 33 -22 12 -3 -7 -20 -11 -45 -10 -26 2
-45 -2 -50 -11 -4 -7 -25 -21 -45 -31 -21 -9 -38 -23 -38 -30 0 -8 -13 -19
-29 -24 -15 -6 -39 -20 -52 -31 -13 -12 -45 -39 -70 -61 -26 -22 -57 -56 -70
-76 -16 -23 -30 -33 -41 -30 -10 2 -18 0 -18 -6 0 -5 -7 -16 -15 -24 -8 -9
-15 -11 -15 -7 0 5 -18 8 -40 7 -22 -1 -40 2 -40 7 0 5 -16 9 -35 9 -21 0 -35
5 -35 13 0 12 -94 77 -111 77 -5 0 -9 5 -9 11 0 5 -3 8 -7 6 -5 -3 -17 6 -28
18 -17 21 -20 22 -31 7 -11 -15 -14 -15 -33 2 -12 11 -21 16 -21 12 0 -4 -16
9 -35 29 -20 19 -40 35 -45 35 -6 0 -19 8 -29 17 -93 86 -121 117 -113 125 11
11 3 60 -8 53 -4 -3 -8 14 -8 37 -1 54 -12 118 -21 118 -3 0 -12 23 -19 52 -9
38 -9 55 -1 65 9 10 8 13 -1 13 -9 0 -11 16 -8 58 3 33 -1 80 -9 111 -7 30
-12 73 -9 95 3 23 7 68 11 101 3 33 8 76 12 95 3 19 7 51 8 70 1 19 7 67 14
106 6 40 8 94 5 120 -3 27 -5 123 -4 214 1 91 2 181 2 200 0 48 16 149 30 183
6 15 18 27 28 27 20 0 50 40 50 68 0 10 7 27 15 38 8 10 15 28 15 39 0 11 6
32 14 47 8 15 17 41 21 58 4 17 18 38 31 46 13 9 24 24 24 34 0 10 7 23 15 30
18 15 19 37 3 43 -9 4 -8 6 2 6 8 1 29 22 45 46 17 25 38 48 49 51 19 6 62 44
183 162 64 63 65 64 60 108 -6 41 -4 45 31 74 20 16 45 30 55 30 11 0 31 8 45
19 15 10 44 24 65 31 21 6 41 18 44 25 2 8 10 12 16 10 7 -3 30 4 52 15 22 11
31 18 20 16 -11 -2 -42 -7 -70 -10 -47 -5 -48 -5 -15 6 19 6 30 12 24 15 -6 2
-30 -3 -52 -10 -34 -12 -46 -12 -67 -1 -22 11 -26 11 -35 -7 -6 -10 -20 -19
-33 -18 -21 1 -21 1 3 9 14 4 19 8 12 9 -26 2 -1 20 53 36 30 10 52 21 50 25
-3 5 4 6 14 3 11 -3 22 -11 25 -19 7 -19 26 -18 26 1 0 8 -5 15 -10 15 -6 0
-5 6 2 14 7 7 18 11 25 9 10 -4 39 6 108 38 38 18 141 35 173 28 18 -4 35 -3
38 2 7 12 51 11 59 -1 4 -7 24 -8 50 -4 24 3 50 2 57 -2 7 -5 26 -7 43 -5 16
2 27 0 23 -5 -5 -4 1 -14 13 -22 11 -8 23 -11 26 -8 4 3 1 6 -5 6 -7 0 -12 4
-12 8 0 4 26 7 58 5 31 -1 65 -3 75 -3 9 -1 15 -5 12 -10 -3 -4 4 -6 15 -3 11
3 26 1 33 -5 6 -5 35 -10 62 -10 34 1 49 -3 47 -11 -1 -8 7 -11 20 -10 13 2
29 0 36 -5 8 -5 12 -3 10 6 -2 7 4 13 12 13 8 0 14 -6 12 -13 -2 -10 2 -10 18
-2 16 9 20 8 21 -7 0 -11 3 -13 6 -6 3 8 14 11 29 7 20 -5 24 -2 24 15 0 18 6
21 45 21 57 0 62 24 8 37 -36 8 -38 11 -38 48 0 34 3 40 23 43 12 2 22 10 22
18 0 8 -5 13 -12 12 -6 -2 -13 4 -15 14 -6 23 58 18 118 -10 25 -11 70 -30
100 -42 30 -11 63 -25 74 -29 11 -5 27 -12 35 -15 51 -21 210 -139 279 -207
88 -89 231 -282 231 -314 0 -7 7 -18 15 -25 8 -7 15 -22 15 -34 0 -11 9 -34
20 -51 11 -16 20 -43 20 -58 0 -15 6 -30 14 -33 8 -3 12 -12 9 -20 -3 -8 -1
-14 3 -14 5 0 9 -15 10 -32 1 -33 12 -133 14 -133 1 0 3 -9 4 -20 2 -11 6 -47
11 -80 10 -72 10 -123 1 -190 -4 -27 -6 -54 -6 -60 1 -14 8 -69 10 -75 4 -12
2 -81 -3 -86 -3 -3 -1 -18 3 -34 5 -19 3 -45 -6 -75 -7 -26 -12 -61 -10 -78 2
-18 -1 -35 -8 -39 -8 -6 -7 -10 3 -17 10 -6 10 -10 1 -16 -6 -4 -10 -25 -9
-49 1 -22 0 -50 -4 -61 -6 -20 -14 -123 -24 -295 -8 -151 -14 -204 -26 -218
-6 -8 -12 -32 -14 -55 -2 -24 -11 -47 -21 -55 -14 -11 -14 -14 -3 -21 11 -7
11 -13 -3 -32 -9 -13 -16 -34 -16 -47 0 -13 -7 -36 -15 -52 -8 -16 -11 -30 -5
-32 10 -3 -12 -81 -37 -132 -10 -20 -11 -31 -3 -36 7 -4 5 -15 -7 -31 -12 -16
-18 -39 -17 -71 1 -27 -1 -48 -5 -48 -3 0 -12 -4 -20 -9 -12 -8 -12 -12 -2
-25 8 -9 9 -16 3 -16 -5 0 -16 -14 -23 -32 -21 -51 -38 -64 -169 -128 -98 -49
-219 -100 -236 -100 -7 0 -29 -9 -49 -20 -20 -11 -44 -20 -55 -20 -11 0 -20
-6 -20 -14 0 -22 -53 -56 -77 -50 -14 4 -30 -4 -52 -25 -35 -34 -87 -48 -129
-33 -17 6 -35 6 -43 1 -8 -5 -27 -9 -42 -9 -39 0 -70 -18 -63 -37 5 -13 0 -14
-26 -9 -18 4 -44 7 -58 7 -14 1 -34 6 -45 12 -11 6 -64 14 -117 18 -54 3 -105
12 -113 19 -26 22 -305 23 -305 1 0 -14 84 -30 103 -19 18 9 152 5 216 -8 21
-4 35 -14 38 -25 4 -15 15 -19 44 -19 22 0 39 -5 39 -10 0 -6 39 -9 103 -8 89
3 106 0 122 -15 10 -10 25 -17 34 -14 43 12 46 12 43 -8 -2 -11 -17 -37 -33
-57 -17 -21 -25 -38 -18 -38 12 0 68 55 86 85 10 19 12 18 26 -16 20 -44 25
-94 11 -94 -6 0 -27 -13 -48 -30 -26 -21 -46 -29 -67 -27 -23 3 -29 0 -29 -15
0 -10 -13 -34 -30 -53 -16 -19 -29 -43 -30 -52 0 -10 -8 -22 -19 -27 -27 -15
-33 -39 -17 -69 8 -15 26 -53 41 -85 14 -31 31 -57 36 -57 11 0 11 6 0 28 -5
9 -21 43 -36 75 -26 56 -26 59 -9 78 9 10 25 19 34 19 24 0 32 26 14 41 -14
11 -13 15 8 30 13 10 32 16 44 13 14 -4 32 4 54 23 23 19 35 24 38 15 3 -10 7
-10 18 -1 10 8 17 8 27 -3 20 -19 31 -58 18 -58 -6 0 -11 6 -11 13 -1 16 -40
-31 -40 -49 0 -8 6 -11 15 -8 18 7 20 -12 3 -19 -8 -4 -5 -8 9 -12 12 -4 19
-13 17 -20 -7 -16 55 -45 173 -81 46 -14 83 -30 83 -35 0 -6 4 -8 9 -5 5 3 14
0 20 -8 9 -11 3 -21 -31 -48 -24 -19 -65 -45 -93 -58 -27 -13 -52 -27 -55 -31
-5 -6 -88 -16 -152 -18 -10 -1 -18 -8 -18 -18 0 -9 -3 -13 -7 -10 -11 12 -43
-47 -43 -80 0 -18 -4 -33 -10 -33 -5 0 -10 -7 -10 -15 0 -8 -14 -42 -31 -75
l-32 -60 27 -21 c14 -11 33 -27 40 -35 8 -8 19 -14 25 -14 6 0 11 -9 11 -19 0
-14 18 -28 65 -50 74 -35 125 -94 125 -144 0 -16 -13 -52 -30 -79 -16 -26 -30
-51 -30 -54 0 -11 -29 -34 -43 -34 -9 0 -17 -3 -19 -7 -1 -5 -28 -19 -58 -32
-30 -14 -65 -34 -78 -45 -32 -29 -52 -13 -72 60 -9 32 -24 73 -33 89 -10 18
-17 53 -17 86 0 51 28 186 49 234 4 11 15 36 24 56 9 21 13 39 10 42 -11 12
-53 -26 -53 -47 0 -12 -6 -30 -13 -41 -38 -55 -51 -300 -19 -360 8 -16 26 -66
38 -110 12 -44 34 -114 48 -155 14 -41 33 -113 43 -159 9 -45 22 -85 27 -87 6
-2 319 -3 694 -2 l684 3 -137 170 c-127 156 -201 257 -218 295 -8 16 -37 66
-62 104 -15 23 -15 25 7 40 12 9 30 16 39 16 9 0 34 13 55 30 21 16 57 44 79
60 22 17 73 63 112 101 l73 71 118 -124 c171 -179 215 -227 350 -385 67 -78
147 -163 176 -189 52 -44 285 -198 291 -192 6 5 -40 54 -56 60 -11 4 -15 18
-14 45 2 65 -72 138 -91 89 -6 -16 -34 -10 -34 6 0 6 7 8 15 4 12 -4 13 -2 6
13 -6 10 -18 24 -27 32 -10 8 -15 9 -12 4 4 -6 3 -17 -2 -25 -7 -11 -11 -11
-24 -1 -9 7 -13 18 -9 24 3 5 1 7 -5 3 -6 -3 -13 -2 -17 4 -3 5 -1 10 6 10 7
0 10 3 6 6 -3 3 -13 2 -22 -3 -13 -8 -5 -18 46 -62 40 -33 68 -50 78 -46 8 3
12 3 8 -1 -8 -8 21 -44 34 -44 5 0 5 7 2 17 -4 11 -3 14 6 9 7 -5 10 -14 7
-21 -2 -7 1 -18 7 -24 6 -6 8 -13 5 -16 -14 -14 -143 89 -260 207 -71 71 -128
134 -128 139 0 5 -22 33 -49 62 -96 101 -129 137 -127 137 2 0 -57 61 -131
136 l-134 137 46 43 c54 52 85 71 85 53 0 -7 8 -4 19 7 10 10 17 21 16 24 -7
11 71 4 78 -8 4 -6 26 -21 47 -32 21 -11 43 -26 47 -33 4 -8 25 -22 45 -31 29
-14 41 -15 58 -6 12 6 37 13 56 15 37 3 84 29 84 46 0 6 -6 7 -12 3 -8 -5 -7
2 3 16 25 38 48 48 63 28 7 -10 16 -15 20 -11 3 4 15 -2 26 -13 50 -48 56 -51
113 -53 33 -1 57 3 57 9 0 15 27 12 33 -3 3 -7 28 -19 56 -27 28 -7 51 -17 51
-20 0 -9 63 -27 123 -35 26 -4 47 -11 47 -15 0 -8 115 -54 175 -69 54 -14 67
-38 67 -132 0 -62 -4 -86 -21 -116 -52 -93 -60 -117 -62 -203 -1 -49 -7 -88
-13 -92 -6 -4 -12 -41 -13 -84 -1 -63 -6 -83 -27 -115 -14 -21 -26 -41 -26
-44 0 -3 164 -5 365 -5 l365 0 0 266 c0 275 0 271 -41 344 -19 33 -31 66 -31
88 0 12 -4 22 -9 22 -5 0 -9 9 -9 19 0 10 -7 21 -15 25 -8 3 -15 12 -15 20 0
27 -66 160 -115 231 -79 115 -158 190 -234 221 -61 24 -79 26 -231 29 -91 1
-187 8 -213 14 -27 6 -65 11 -85 11 -69 1 -138 7 -149 13 -10 7 -62 15 -128
22 -82 8 -82 12 -5 82 39 36 129 142 201 237 71 94 153 199 182 232 74 88 132
195 189 352 27 75 61 169 76 207 22 60 26 94 32 240 5 121 14 200 31 275 22
95 24 129 24 345 0 232 -1 246 -33 400 -17 88 -37 184 -43 213 -6 29 -26 88
-46 130 -19 42 -43 96 -54 119 -10 23 -19 47 -19 52 0 6 -5 11 -11 11 -7 0 -9
11 -5 30 3 17 1 30 -4 30 -6 0 -10 9 -10 19 0 11 -4 22 -8 25 -5 3 -7 18 -4
34 4 29 -37 166 -113 377 -19 55 -45 145 -56 200 -29 142 -42 183 -80 243 -19
28 -46 71 -60 95 -40 65 -183 320 -192 341 -4 10 -14 33 -21 50 -20 43 -32 83
-35 110 0 8 -11 16 -23 18 -14 2 -29 15 -38 35 -8 18 -21 33 -27 33 -21 0 -63
41 -102 99 -20 30 -44 65 -53 79 -9 14 -15 29 -12 34 3 4 -2 11 -11 14 -9 4
-23 20 -31 36 -8 16 -19 26 -25 22 -15 -9 -39 16 -39 41 0 32 -25 51 -46 35
-13 -11 -16 -10 -21 8 -4 17 -12 21 -45 19 -23 -1 -42 4 -47 12 -5 8 -14 10
-20 7 -21 -14 -98 21 -176 78 -19 14 -19 15 5 9 20 -5 23 -4 15 8 -8 9 -8 105
-3 298 4 157 6 287 3 289 -14 14 -17 -28 -22 -287 -3 -155 -8 -281 -10 -281
-2 0 -23 9 -46 20 l-42 21 28 -26 c35 -32 21 -33 -25 -1 -20 13 -52 29 -72 36
-19 6 -39 16 -43 22 -4 7 -1 9 8 6 50 -21 52 -21 45 -10 -4 7 -12 12 -18 12
-5 0 -47 22 -92 49 -44 27 -100 58 -123 70 -23 11 -45 30 -48 42 -13 40 -83
104 -142 131 -175 81 -259 99 -358 77 -79 -17 -254 -13 -276 7 -9 8 -27 13
-40 10 -23 -3 -58 9 -69 24 -15 20 -124 70 -142 64 -10 -3 -25 -1 -33 6 -7 6
-19 10 -27 9 -19 -3 -91 12 -105 23 -7 6 -19 4 -32 -4 -16 -10 -23 -10 -33 0
-6 6 -20 12 -30 12 -10 0 -18 5 -18 10 0 6 -43 10 -110 10 -108 0 -116 -3
-104 -34 5 -13 9 -14 20 -5 11 9 15 7 20 -6 4 -9 2 -21 -5 -28 -6 -6 -11 -18
-11 -27 0 -9 -8 -16 -18 -16 -13 0 -17 6 -15 21 4 16 -1 20 -22 21 -15 1 -37
12 -50 24 -17 16 -24 18 -28 8 -4 -9 -8 -10 -14 -2 -7 10 -47 23 -80 26 -7 1
-13 5 -13 10 0 4 -25 8 -55 8 -32 0 -55 -4 -55 -11z m414 -111 c-3 -4 -9 -8
-15 -8 -5 0 -9 4 -9 8 0 5 7 9 15 9 8 0 12 -4 9 -9z m-422 -50 c-7 -7 -12 -8
-12 -2 0 14 12 26 19 19 2 -3 -1 -11 -7 -17z m52 -3 c-4 -8 -8 -15 -10 -15 -2
0 -4 7 -4 15 0 8 4 15 10 15 5 0 7 -7 4 -15z m216 -120 c6 -15 17 -25 30 -25
11 0 23 -6 26 -14 3 -8 14 -16 25 -19 15 -4 19 -2 15 9 -4 11 0 13 21 8 21 -6
24 -4 18 7 -8 12 -6 12 8 0 9 -7 17 -20 17 -28 0 -12 -3 -13 -14 -4 -19 16
-30 -10 -31 -76 0 -37 3 -53 12 -53 7 0 13 -9 13 -19 0 -11 6 -21 13 -24 6 -2
9 -8 5 -12 -10 -11 -61 44 -54 60 3 8 0 17 -5 21 -6 3 -8 17 -5 29 5 19 3 22
-14 18 -11 -3 -20 -9 -20 -13 0 -5 -9 -6 -20 -3 -22 6 -26 18 -10 28 6 3 10
12 10 18 0 8 -3 8 -9 -2 -11 -17 -25 4 -17 26 5 13 9 13 23 2 15 -13 15 -12 2
9 -8 12 -23 22 -34 22 -16 0 -20 7 -20 30 0 37 3 37 15 5z m665 -45 c-3 -5
-11 -10 -16 -10 -6 0 -7 5 -4 10 3 6 11 10 16 10 6 0 7 -4 4 -10z m59 -15 c16
-12 17 -17 6 -30 -24 -28 -69 -15 -50 15 7 12 12 12 22 2 6 -6 17 -12 23 -12
5 0 -3 9 -20 20 -16 11 -23 20 -15 20 8 -1 24 -7 34 -15z m-429 -36 c11 -16 1
-19 -13 -3 -7 8 -8 14 -3 14 5 0 13 -5 16 -11z m-250 -59 c3 -5 1 -10 -4 -10
-6 0 -11 5 -11 10 0 6 2 10 4 10 3 0 8 -4 11 -10z m35 -31 c0 -5 -4 -9 -10 -9
-5 0 -10 7 -10 16 0 8 5 12 10 9 6 -3 10 -10 10 -16z m80 11 c0 -5 -4 -10 -10
-10 -5 0 -10 5 -10 10 0 6 5 10 10 10 6 0 10 -4 10 -10z m1570 -26 c0 -2 -13
2 -30 11 -16 9 -30 18 -30 21 0 2 14 -2 30 -11 17 -9 30 -18 30 -21z m-1417 5
c16 -9 22 -9 25 0 2 6 7 11 12 11 5 0 3 -13 -3 -30 -6 -16 -15 -30 -20 -30 -4
0 -5 5 -2 11 10 14 -27 40 -41 28 -7 -5 -11 -3 -11 6 0 18 11 19 40 4z m-106
-15 c15 -4 15 -6 3 -14 -21 -13 -24 -13 -37 10 -13 20 -15 20 34 4z m1585 -22
c11 -13 8 -12 -19 2 -18 9 -33 18 -33 20 0 9 41 -8 52 -22z m-1352 -12 c0 -5
-5 -10 -11 -10 -5 0 -7 5 -4 10 3 6 8 10 11 10 2 0 4 -4 4 -10z m-178 -12
c-10 -10 -8 -16 7 -28 15 -11 18 -19 11 -30 -7 -11 -12 -12 -18 -3 -4 6 -14
13 -22 15 -16 3 -40 23 -40 33 0 4 6 5 12 3 7 -3 19 1 26 9 7 7 19 13 25 13 8
0 7 -4 -1 -12z m322 4 c3 -5 -1 -9 -9 -9 -8 0 -12 4 -9 9 3 4 7 8 9 8 2 0 6
-4 9 -8z m-224 -12 c8 -5 11 -12 7 -16 -4 -4 -3 -12 3 -18 6 -9 -3 -12 -33
-13 -23 0 -36 1 -29 4 6 3 9 9 6 15 -4 6 1 8 15 3 23 -7 28 4 9 23 -14 14 1
16 22 2z m87 -53 c-2 -6 -9 -13 -17 -15 -7 -3 -10 0 -6 7 4 6 0 11 -9 11 -9 0
-14 4 -11 9 8 12 48 1 43 -12z m-20 -30 c8 -9 -5 -37 -17 -37 -6 0 -9 4 -5 9
3 5 -4 12 -15 16 -11 3 -20 10 -20 15 0 9 47 6 57 -3z m55 -62 c-5 -40 -8 -42
-34 -18 -11 9 -18 11 -18 5 0 -7 -4 -12 -10 -12 -5 0 -10 9 -10 19 0 19 25 35
40 26 5 -3 11 -1 15 5 13 21 21 9 17 -25z m-92 -25 c0 -5 -2 -10 -4 -10 -3 0
-8 5 -11 10 -3 6 -1 10 4 10 6 0 11 -4 11 -10z m155 0 c3 -5 1 -10 -4 -10 -6
0 -11 5 -11 10 0 6 2 10 4 10 3 0 8 -4 11 -10z m35 0 c0 -5 -4 -10 -10 -10 -5
0 -10 5 -10 10 0 6 5 10 10 10 6 0 10 -4 10 -10z m-120 -25 c0 -8 -6 -15 -14
-15 -17 0 -28 14 -19 24 12 12 33 6 33 -9z m815 -12 c-3 -16 -9 -41 -15 -58
-9 -28 -10 -27 -5 10 4 27 3 35 -4 26 -7 -11 -10 -10 -13 5 -3 16 4 24 39 43
1 1 0 -11 -2 -26z m-661 -8 c9 -24 -31 -24 -42 0 -9 20 -8 21 13 17 13 -2 26
-10 29 -17z m-124 5 c0 -5 -2 -10 -4 -10 -3 0 -8 5 -11 10 -3 6 -1 10 4 10 6
0 11 -4 11 -10z m859 -56 c1 -1 0 -7 -4 -13 -10 -18 -32 -12 -38 9 -4 18 -2
20 16 14 12 -3 24 -8 26 -10z m-149 -24 c0 -5 -4 -10 -10 -10 -5 0 -10 5 -10
10 0 6 5 10 10 10 6 0 10 -4 10 -10z m-25 -75 c0 -14 -6 -25 -12 -25 -16 0
-17 22 -1 38 7 7 12 12 13 12 0 0 0 -11 0 -25z m125 -67 c0 -13 -23 -5 -28 10
-2 7 2 10 12 6 9 -3 16 -11 16 -16z m-3 -52 c-3 -8 -1 -17 6 -20 7 -2 4 -5 -5
-5 -10 -1 -18 1 -18 3 0 10 13 36 17 36 3 0 3 -6 0 -14z m83 -76 c0 -5 -4 -10
-10 -10 -5 0 -10 5 -10 10 0 6 5 10 10 10 6 0 10 -4 10 -10z m-30 -10 c0 -5
-4 -10 -10 -10 -5 0 -10 5 -10 10 0 6 5 10 10 10 6 0 10 -4 10 -10z m50 -284
c0 -3 -4 -8 -10 -11 -5 -3 -10 -1 -10 4 0 6 5 11 10 11 6 0 10 -2 10 -4z
m-540 -196 c0 -5 -5 -10 -11 -10 -5 0 -7 5 -4 10 3 6 8 10 11 10 2 0 4 -4 4
-10z m-1150 -185 c0 -1 -9 -5 -19 -8 -13 -3 -18 -1 -14 9 4 10 33 10 33 -1z
m75 -15 c3 -5 1 -10 -4 -10 -6 0 -11 5 -11 10 0 6 2 10 4 10 3 0 8 -4 11 -10z
m-1061 -1615 c3 -9 0 -15 -9 -15 -8 0 -15 7 -15 15 0 8 4 15 9 15 5 0 11 -7
15 -15z m-24 -40 c0 -8 -4 -15 -10 -15 -5 0 -7 7 -4 15 4 8 8 15 10 15 2 0 4
-7 4 -15z m-900 -1115 c0 -5 -7 -7 -15 -4 -8 4 -15 8 -15 10 0 2 7 4 15 4 8 0
15 -4 15 -10z m983 -64 c15 -19 27 -39 27 -45 0 -5 8 -15 18 -20 15 -9 15 -10
0 -11 -16 0 -98 84 -98 101 0 20 27 7 53 -25z m2772 -117 c-4 -5 -13 -9 -21
-9 -8 0 -14 -4 -14 -8 0 -4 -46 -30 -102 -56 -57 -27 -110 -52 -119 -57 -9 -4
-20 -5 -23 -2 -8 9 14 33 30 33 8 0 14 5 14 10 0 6 12 10 28 10 21 0 24 2 12
11 -11 7 -7 9 20 7 25 -2 34 1 32 11 -2 8 3 11 12 8 9 -4 20 1 25 11 6 10 11
12 11 5 0 -7 5 -13 11 -13 5 0 7 5 4 10 -3 6 1 10 10 10 9 0 25 9 37 20 20 19
44 18 33 -1z m-30 -64 c-22 -17 -33 -20 -43 -13 -10 9 -4 15 25 28 48 22 56
16 18 -15z m-90 -40 c-29 -24 -65 -33 -65 -17 0 10 59 41 80 41 9 0 3 -9 -15
-24z m-193 -29 c16 -12 16 -14 -8 -24 -14 -7 -34 -12 -44 -12 -11 0 -20 -4
-20 -9 0 -10 -38 -24 -57 -22 -7 1 -13 -2 -13 -7 0 -5 -11 -14 -25 -20 -31
-14 -35 -15 -35 -4 0 10 65 42 85 42 18 0 20 21 3 38 -9 9 -9 12 -1 12 7 0 15
-4 18 -10 10 -16 48 -12 42 4 -11 28 25 36 55 12z m110 -8 c-9 -9 -15 -9 -24
0 -9 9 -7 12 12 12 19 0 21 -3 12 -12z m-42 -23 c0 -8 -9 -24 -20 -35 l-20
-20 0 20 c0 22 -24 27 -37 8 -16 -25 -38 -36 -58 -28 -17 7 -9 13 45 38 75 35
90 38 90 17z m-2163 -37 c-3 -8 -6 -5 -6 6 -1 11 2 17 5 13 3 -3 4 -12 1 -19z
m155 -23 c10 4 26 -7 43 -27 15 -18 36 -36 46 -40 10 -4 26 -20 36 -35 10 -15
26 -34 35 -41 10 -7 18 -20 18 -28 0 -8 9 -14 20 -14 11 0 20 -4 20 -10 0 -5
8 -10 18 -10 29 0 89 -65 118 -128 14 -31 31 -67 37 -80 6 -13 27 -30 47 -38
41 -17 110 -89 110 -116 0 -10 -5 -17 -12 -15 -7 1 -13 -5 -14 -13 0 -8 -2
-20 -2 -27 -3 -20 -36 -20 -64 0 -16 10 -36 16 -46 13 -11 -4 -30 2 -45 15
-24 18 -27 26 -23 65 3 39 -3 67 -30 143 -3 11 -8 11 -16 3 -8 -8 -8 -15 0
-25 10 -12 16 -49 26 -154 3 -40 18 -57 59 -73 67 -26 93 -39 109 -59 10 -12
29 -21 43 -21 20 0 29 -8 41 -35 11 -27 20 -35 40 -35 16 0 24 -5 21 -12 -6
-19 21 -79 48 -108 35 -38 65 -97 65 -130 0 -16 4 -31 9 -34 4 -3 11 -23 15
-45 3 -22 12 -41 18 -44 10 -4 11 -7 1 -18 -7 -7 -13 -26 -13 -42 0 -38 -29
-138 -45 -153 -8 -8 -16 -9 -26 -2 -11 7 -11 11 -2 15 10 3 9 11 -2 33 -8 16
-15 41 -15 56 0 18 -4 25 -14 21 -18 -7 -38 40 -38 89 0 40 -28 93 -71 133
-19 17 -33 22 -54 18 -52 -10 -123 -39 -123 -51 0 -18 -100 -135 -121 -141
-10 -4 -40 -23 -66 -44 -51 -40 -87 -56 -143 -65 -33 -5 -36 -3 -54 33 -19 40
-16 91 7 120 10 12 11 66 6 291 -1 36 3 83 9 105 6 22 15 75 20 118 7 59 15
84 33 103 12 13 19 27 16 31 -4 3 -14 -2 -23 -13 -11 -13 -17 -15 -20 -6 -10
21 -27 13 -21 -10 12 -43 -12 -90 -26 -54 -9 23 4 86 18 86 6 0 18 12 25 28 8
15 23 37 34 50 17 19 18 26 8 42 -9 15 -9 25 0 45 16 35 5 41 -30 16 -42 -30
-49 -15 -20 45 8 17 4 35 -20 87 -17 35 -40 74 -53 86 -12 11 -19 24 -15 28 5
5 30 -16 57 -46 27 -30 49 -50 49 -44 0 16 -90 123 -104 123 -6 0 -22 9 -36
19 l-24 19 34 10 c20 5 40 5 46 0 6 -4 18 -6 26 -3z m1719 2 c-6 -8 -8 -17 -4
-20 3 -4 -1 -7 -10 -7 -20 0 -21 6 -4 25 15 18 33 20 18 2z m104 -7 c-3 -5
-11 -10 -16 -10 -6 0 -7 5 -4 10 3 6 11 10 16 10 6 0 7 -4 4 -10z m-1387 -30
c18 0 15 -23 -10 -60 -31 -46 -45 -47 -61 -7 -28 65 -29 77 -13 77 9 0 16 4
16 9 0 6 12 3 28 -5 15 -7 33 -14 40 -14z m1242 -9 c0 -11 -31 -24 -39 -16 -3
3 1 10 9 15 19 12 30 12 30 1z m68 -27 c2 -20 0 -25 -6 -16 -7 11 -11 7 -16
-12 -3 -14 -13 -26 -21 -26 -8 0 -15 -4 -15 -10 0 -14 -27 -12 -33 3 -3 6 -6
2 -6 -9 -1 -23 -14 -37 -44 -47 -11 -4 -16 -3 -12 3 3 6 -9 24 -27 40 -28 26
-30 30 -13 31 11 0 54 18 95 39 41 21 80 37 85 36 6 -2 11 -16 13 -32z m-128
-10 c0 -2 -7 -4 -15 -4 -8 0 -15 4 -15 10 0 5 7 7 15 4 8 -4 15 -8 15 -10z
m-3695 -144 c10 -11 16 -20 13 -20 -3 0 -13 9 -23 20 -10 11 -16 20 -13 20 3
0 13 -9 23 -20z m540 10 c3 -5 1 -10 -4 -10 -6 0 -11 5 -11 10 0 6 2 10 4 10
3 0 8 -4 11 -10z m2174 -101 c-16 -10 -23 -4 -14 10 3 6 11 8 17 5 6 -4 5 -9
-3 -15z m-659 -44 c4 3 6 -4 3 -15 -7 -25 -23 -16 -22 13 0 12 3 16 6 9 2 -6
8 -10 13 -7z m-101 -55 c13 -64 9 -80 -16 -80 -10 0 -14 -6 -10 -19 3 -12 -1
-22 -9 -25 -8 -3 -14 -12 -14 -21 0 -18 17 -20 23 -2 9 24 13 1 9 -45 -3 -39
-8 -48 -23 -48 -10 0 -19 -1 -19 -3 0 -1 -4 -17 -9 -35 -8 -25 -7 -32 5 -32 8
0 14 9 14 20 0 11 4 20 9 20 9 0 4 -28 -23 -145 -19 -83 -24 -113 -25 -142 -1
-12 -9 -29 -18 -39 -13 -12 -14 -19 -6 -21 14 -5 8 -92 -7 -107 -6 -6 -7 2 -4
18 2 15 -3 43 -13 64 -10 20 -18 41 -19 47 0 5 -2 15 -2 22 -1 7 -8 10 -15 7
-18 -6 -33 13 -40 52 -5 29 -4 31 15 26 16 -4 19 -2 12 9 -5 8 -9 16 -10 19
-12 38 -19 49 -40 53 -13 2 -22 1 -19 -3 2 -3 -7 -19 -20 -36 -19 -23 -24 -25
-25 -11 0 10 9 37 20 59 11 23 20 48 20 55 0 7 4 21 9 31 41 77 135 279 133
285 -1 4 5 10 13 13 8 4 15 15 15 25 0 10 4 19 10 19 5 0 7 6 5 13 -4 8 6 13
29 14 33 3 33 3 45 -57z m138 -62 c1 -10 -4 -18 -12 -18 -15 0 -25 22 -25 53
0 20 0 20 18 1 10 -10 19 -26 19 -36z m-1748 -17 c20 -11 58 -88 48 -98 -4 -3
-14 0 -22 7 -13 11 -19 9 -39 -9 -16 -15 -22 -29 -18 -43 5 -21 5 -21 -15 -2
-24 23 -15 47 28 73 l29 18 -20 26 c-29 37 -26 46 9 28z m1671 -105 c0 -8 -6
-19 -14 -25 -20 -16 -30 3 -16 29 11 21 30 19 30 -4z m-1726 -120 c13 -18 55
-49 93 -69 37 -20 60 -37 51 -37 -22 0 -23 -14 -2 -34 18 -18 30 -20 39 -6 16
27 25 3 24 -67 -1 -114 -17 -144 -34 -65 -6 27 -9 31 -21 21 -17 -14 -18 -71
-2 -87 27 -27 85 -4 100 39 3 8 9 11 13 7 13 -12 -5 -43 -41 -67 -30 -21 -39
-23 -55 -13 -10 7 -29 12 -41 12 -35 0 -85 35 -92 64 -8 32 12 82 52 128 l31
35 -49 37 c-74 57 -120 112 -120 144 0 39 13 49 22 17 3 -14 18 -41 32 -59z
m271 4 c-3 -5 -11 -10 -16 -10 -6 0 -7 5 -4 10 3 6 11 10 16 10 6 0 7 -4 4
-10z m4913 -2 c15 -15 15 -61 0 -76 -18 -18 -51 14 -38 39 6 10 10 22 9 26 -4
25 10 30 29 11z m-4972 -58 c27 0 55 -22 46 -36 -4 -6 -17 -14 -29 -18 -19 -6
-23 -4 -23 13 0 14 -11 25 -32 35 -18 8 -42 21 -53 30 -15 12 -9 11 25 -4 25
-11 54 -20 66 -20z m4943 -33 c8 -10 4 -19 -17 -38 -60 -54 -72 -61 -88 -55
-15 6 -9 15 32 55 56 55 58 56 73 38z m82 -90 c14 -24 1 -41 -18 -26 -12 11
-14 10 -11 -7 2 -14 -2 -18 -17 -16 -11 2 -26 10 -34 17 -13 13 -13 17 1 32 8
10 18 26 22 37 6 18 7 18 27 0 12 -10 25 -27 30 -37z m-2687 -52 c-4 -8 -10
-15 -15 -15 -5 0 -9 7 -9 15 0 8 7 15 15 15 9 0 12 -6 9 -15z m2526 -51 c6
-14 10 -32 10 -40 0 -20 -34 -17 -61 5 -23 19 -24 19 -5 40 25 28 44 26 56 -5z
m-3741 -125 c11 -18 11 -23 -1 -30 -10 -7 -11 -9 0 -9 9 0 11 -7 7 -19 -5 -18
27 -61 45 -61 11 0 10 -54 -1 -61 -17 -10 -3 -40 16 -33 8 3 15 12 15 20 0 7
6 11 13 8 8 -3 20 2 27 11 7 8 20 15 28 15 12 0 13 -3 4 -12 -16 -16 -15 -33
1 -20 7 6 23 9 34 6 18 -5 22 -15 25 -62 2 -32 1 -61 -4 -66 -5 -6 -8 -3 -8 6
0 21 -20 28 -43 16 -21 -11 -13 -30 8 -21 10 3 15 -1 15 -12 0 -12 6 -16 20
-12 15 4 20 0 20 -14 0 -12 -5 -16 -15 -13 -9 4 -15 0 -15 -10 0 -9 7 -16 15
-16 8 0 15 -4 15 -10 0 -5 -7 -10 -15 -10 -9 0 -15 -9 -15 -24 0 -28 27 -43
33 -18 3 12 5 11 6 -5 1 -14 -5 -23 -14 -23 -8 0 -15 -2 -15 -4 0 -2 -3 -11
-6 -20 -4 -11 -1 -16 10 -16 9 0 16 -7 16 -15 0 -8 5 -15 12 -15 6 0 8 -3 4
-7 -4 -5 -21 -8 -37 -8 -16 0 -29 3 -29 8 0 4 -6 7 -14 7 -7 0 -21 11 -30 25
-9 14 -21 23 -25 21 -10 -7 -91 67 -91 82 0 7 -7 12 -15 12 -8 0 -15 8 -15 18
0 10 -3 22 -7 26 -18 18 -13 386 5 386 4 0 13 -10 21 -21z m211 -160 c0 -6 -4
-7 -10 -4 -5 3 -10 11 -10 16 0 6 5 7 10 4 6 -3 10 -11 10 -16z m440 -8 c0 -5
-7 -11 -15 -15 -15 -5 -20 5 -8 17 9 10 23 9 23 -2z m-60 -41 c0 -5 7 -10 16
-10 14 0 14 -3 4 -15 -10 -12 -10 -15 4 -15 20 0 21 -16 1 -24 -33 -12 -58 15
-48 53 5 21 23 30 23 11z m1083 -104 c4 -25 3 -36 -3 -30 -6 6 -12 30 -15 55
-7 54 9 32 18 -25z m-1074 9 c18 11 12 -7 -6 -21 -17 -13 -17 -13 0 -14 21 0
23 -16 2 -24 -8 -3 -21 2 -30 10 -17 17 -17 20 -8 53 6 22 7 23 19 6 7 -9 17
-14 23 -10z m2016 -5 c3 -5 2 -10 -4 -10 -5 0 -13 5 -16 10 -3 6 -2 10 4 10 5
0 13 -4 16 -10z m-2035 -101 c0 -10 5 -19 12 -19 9 0 9 -3 1 -11 -16 -16 -30
-4 -35 30 -3 21 -1 28 9 24 7 -3 13 -14 13 -24z m-2 -80 c-11 -7 -10 -11 2
-18 8 -6 11 -13 7 -17 -9 -10 -23 5 -31 33 -6 18 -4 21 14 16 17 -4 19 -8 8
-14z m12 -109 c0 -5 -4 -10 -10 -10 -5 0 -10 5 -10 10 0 6 5 10 10 10 6 0 10
-4 10 -10z m1077 -86 c-9 -9 -28 6 -21 18 4 6 10 6 17 -1 6 -6 8 -13 4 -17z
m-1082 6 c-3 -5 -11 -10 -16 -10 -6 0 -7 5 -4 10 3 6 11 10 16 10 6 0 7 -4 4
-10z m5 -70 c0 -5 -4 -10 -10 -10 -5 0 -10 5 -10 10 0 6 5 10 10 10 6 0 10 -4
10 -10z m10 -70 c0 -5 -4 -10 -10 -10 -5 0 -10 5 -10 10 0 6 5 10 10 10 6 0
10 -4 10 -10z"></path>
<path d="M3000 6610 c0 -5 5 -10 11 -10 5 0 7 5 4 10 -3 6 -8 10 -11 10 -2 0
-4 -4 -4 -10z"></path>
<path d="M2350 1690 c0 -5 5 -10 10 -10 6 0 10 5 10 10 0 6 -4 10 -10 10 -5 0
-10 -4 -10 -10z"></path>
<path d="M2650 1455 c0 -9 5 -15 11 -13 6 2 11 8 11 13 0 5 -5 11 -11 13 -6 2
-11 -4 -11 -13z"></path>
<path d="M2325 1370 c-18 -20 -18 -21 14 -50 31 -29 51 -38 51 -22 0 4 -9 13
-21 20 -16 10 -19 19 -14 43 8 34 -4 37 -30 9z"></path>
<path d="M2392 1343 c2 -10 14 -19 26 -21 19 -3 23 1 20 15 -2 10 -14 19 -26
21 -19 3 -23 -1 -20 -15z"></path>
<path d="M2505 1350 c-3 -5 -1 -10 4 -10 6 0 11 5 11 10 0 6 -2 10 -4 10 -3 0
-8 -4 -11 -10z"></path>
<path d="M2500 1290 c0 -5 7 -10 15 -10 8 0 15 5 15 10 0 6 -7 10 -15 10 -8 0
-15 -4 -15 -10z"></path>
<path d="M2415 1280 c-3 -5 3 -10 14 -10 12 0 21 5 21 10 0 6 -6 10 -14 10 -8
0 -18 -4 -21 -10z"></path>
<path d="M2360 1245 c-7 -9 -10 -18 -7 -22 8 -7 37 15 37 28 0 14 -16 11 -30
-6z"></path>
<path d="M2502 1248 c-8 -10 -6 -20 8 -38 11 -14 20 -31 20 -37 0 -21 15 -15
37 16 32 42 33 65 3 69 -21 3 -22 2 -11 -12 7 -8 10 -20 6 -26 -10 -17 -23
-11 -27 12 -4 26 -21 34 -36 16z"></path>
<path d="M2670 1240 c0 -5 5 -10 10 -10 6 0 10 5 10 10 0 6 -4 10 -10 10 -5 0
-10 -4 -10 -10z"></path>
<path d="M2310 1230 c0 -5 5 -10 10 -10 6 0 10 5 10 10 0 6 -4 10 -10 10 -5 0
-10 -4 -10 -10z"></path>
<path d="M2621 1227 c-12 -15 -5 -27 15 -27 7 0 12 9 11 20 -2 23 -10 25 -26
7z"></path>
<path d="M2475 1181 c4 -13 -4 -26 -27 -45 -45 -36 -45 -36 -73 -79 -29 -44
-30 -47 -10 -47 9 0 23 16 32 36 12 23 26 37 43 41 17 3 30 15 37 34 6 16 19
29 28 29 14 0 14 3 -2 25 -21 29 -37 33 -28 6z"></path>
<path d="M2634 1143 c-33 -35 -12 -45 23 -10 16 16 21 27 14 31 -6 4 -23 -5
-37 -21z"></path>
<path d="M2545 1120 c3 -5 13 -10 21 -10 8 0 14 5 14 10 0 6 -9 10 -21 10 -11
0 -17 -4 -14 -10z"></path>
<path d="M2306 1111 c-4 -5 -2 -12 3 -15 5 -4 12 -2 15 3 4 5 2 12 -3 15 -5 4
-12 2 -15 -3z"></path>
<path d="M2647 1085 c-8 -18 11 -31 25 -17 11 11 3 32 -12 32 -4 0 -10 -7 -13
-15z"></path>
<path d="M2503 1060 c-22 -17 -32 -50 -15 -50 11 1 44 49 40 60 -2 4 -13 0
-25 -10z"></path>
<path d="M2590 1066 c0 -9 0 -19 -1 -23 0 -4 4 -9 10 -11 14 -5 14 35 1 43 -5
3 -10 -1 -10 -9z"></path>
<path d="M2724 1045 c-10 -8 -14 -15 -7 -15 19 0 43 11 43 21 0 13 -14 11 -36
-6z"></path>
<path d="M2296 1024 c-6 -24 -2 -43 8 -33 11 10 17 59 8 59 -5 0 -13 -12 -16
-26z"></path>
<path d="M2680 1030 c-8 -5 -11 -12 -7 -16 4 -4 13 -2 19 4 15 15 7 24 -12 12z"></path>
<path d="M2423 1015 c-13 -14 -17 -35 -8 -35 11 0 44 34 39 42 -7 11 -17 9
-31 -7z"></path>
<path d="M2505 1000 c-4 -6 -3 -16 3 -22 6 -6 12 -6 17 2 4 6 3 16 -3 22 -6 6
-12 6 -17 -2z"></path>
<path d="M2392 947 c-22 -23 -29 -47 -14 -47 11 1 44 50 40 61 -2 6 -13 0 -26
-14z"></path>
<path d="M2450 960 c0 -5 7 -10 16 -10 8 0 12 5 9 10 -3 6 -10 10 -16 10 -5 0
-9 -4 -9 -10z"></path>
<path d="M2542 941 c-20 -27 -40 -81 -30 -81 5 0 68 98 68 106 0 13 -19 0 -38
-25z"></path>
<path d="M2430 920 c0 -5 5 -10 10 -10 6 0 10 5 10 10 0 6 -4 10 -10 10 -5 0
-10 -4 -10 -10z"></path>
<path d="M2396 858 c-3 -13 -1 -27 3 -31 14 -14 31 2 31 29 0 30 -26 32 -34 2z"></path>
<path d="M2890 800 c0 -5 5 -10 10 -10 6 0 10 5 10 10 0 6 -4 10 -10 10 -5 0
-10 -4 -10 -10z"></path>
<path d="M1960 1460 c0 -5 5 -10 10 -10 6 0 10 5 10 10 0 6 -4 10 -10 10 -5 0
-10 -4 -10 -10z"></path>
<path d="M1930 1080 c0 -5 5 -10 10 -10 6 0 10 5 10 10 0 6 -4 10 -10 10 -5 0
-10 -4 -10 -10z"></path>
<path d="M543 1125 c-26 -18 -63 -76 -63 -98 0 -9 13 -23 29 -32 l30 -15 26
56 c37 79 27 123 -22 89z"></path>
<path d="M1946 662 c-2 -4 2 -16 10 -27 13 -18 14 -18 14 8 0 25 -13 36 -24
19z"></path>
<path d="M1830 444 c0 -8 5 -12 10 -9 6 3 10 10 10 16 0 5 -4 9 -10 9 -5 0
-10 -7 -10 -16z"></path>
<path d="M1860 430 c0 -5 4 -10 9 -10 6 0 13 5 16 10 3 6 -1 10 -9 10 -9 0
-16 -4 -16 -10z"></path>
<path d="M4350 6885 c0 -103 2 -115 19 -125 40 -21 50 -13 53 42 3 45 6 53 33
68 17 9 45 36 63 59 17 23 32 41 32 39 1 -140 9 -358 14 -367 21 -33 26 3 26
178 0 104 -3 196 -6 205 -5 13 -25 16 -120 16 l-114 0 0 -115z"></path>
<path d="M4627 6954 c-2 -25 -2 -122 1 -216 4 -128 8 -173 19 -184 20 -20 37
-18 28 4 -4 9 -10 113 -13 230 -3 160 -8 212 -17 212 -7 0 -14 -19 -18 -46z"></path>
<path d="M4857 6893 c-10 -158 -9 -293 3 -293 6 0 10 41 10 103 0 56 3 146 7
200 4 62 2 97 -4 97 -6 0 -13 -47 -16 -107z"></path>
<path d="M4960 6985 c0 -8 5 -15 10 -15 6 0 10 7 10 15 0 8 -4 15 -10 15 -5 0
-10 -7 -10 -15z"></path>
<path d="M5077 6913 c25 -49 51 -95 57 -103 7 -8 33 -59 60 -113 26 -53 52
-100 57 -103 12 -7 2 16 -51 120 -26 50 -69 135 -95 189 -27 53 -54 97 -61 97
-8 0 5 -34 33 -87z"></path>
<path d="M5160 6997 c0 -2 32 -64 71 -137 241 -457 423 -847 598 -1281 114
-284 129 -314 148 -295 7 7 -43 158 -68 206 -11 19 -19 39 -19 43 0 5 -6 23
-14 40 -8 18 -26 59 -39 92 -14 33 -47 114 -75 180 -91 219 -212 473 -318 670
-18 33 -41 79 -52 101 -11 23 -25 45 -31 48 -6 4 -11 14 -11 21 0 8 -27 59
-60 114 -33 55 -71 123 -85 151 -14 27 -30 50 -35 50 -6 0 -10 -1 -10 -3z"></path>
<path d="M2429 6953 c-60 -40 -109 -82 -109 -95 0 -9 17 3 53 38 12 11 38 28
58 37 36 17 66 44 57 52 -2 2 -29 -12 -59 -32z"></path>
<path d="M2221 6840 c-15 -14 -36 -30 -47 -37 -18 -11 -18 -12 3 -12 12 -1 25
4 28 9 3 6 15 10 27 10 11 0 22 8 25 20 5 19 14 24 41 21 6 -1 12 3 12 9 0 19
-61 6 -89 -20z"></path>
<path d="M2080 6795 c-10 -12 -10 -15 3 -15 8 0 20 7 27 15 10 12 10 15 -3 15
-8 0 -20 -7 -27 -15z"></path>
<path d="M2410 6780 c0 -5 5 -10 11 -10 5 0 7 5 4 10 -3 6 -8 10 -11 10 -2 0
-4 -4 -4 -10z"></path>
<path d="M2015 6759 c-22 -11 -49 -30 -60 -40 l-20 -20 20 7 c28 10 92 51 100
64 9 14 5 13 -40 -11z"></path>
<path d="M2016 6705 c-52 -25 -78 -45 -58 -45 18 0 122 53 122 62 0 12 -9 9
-64 -17z"></path>
<path d="M1773 6661 c-54 -9 -125 -41 -120 -55 6 -19 40 -19 54 0 10 14 29 19
68 21 31 1 64 8 76 16 20 14 20 15 -3 21 -13 3 -25 5 -28 5 -3 -1 -24 -5 -47
-8z"></path>
<path d="M1885 6650 c-3 -5 3 -10 15 -10 12 0 18 5 15 10 -3 6 -10 10 -15 10
-5 0 -12 -4 -15 -10z"></path>
<path d="M1615 6580 c-17 -19 -17 -22 -2 -37 15 -15 17 -14 27 11 19 50 7 62
-25 26z"></path>
<path d="M4850 6509 c0 -37 4 -58 10 -54 6 3 10 31 10 61 0 30 -4 54 -10 54
-6 0 -10 -27 -10 -61z"></path>
<path d="M1572 6508 c5 -15 28 -23 28 -10 0 5 -7 13 -16 16 -10 4 -14 1 -12
-6z"></path>
<path d="M4740 6510 c0 -5 9 -10 21 -10 11 0 17 5 14 10 -3 6 -13 10 -21 10
-8 0 -14 -4 -14 -10z"></path>
<path d="M1506 6458 c-23 -28 -32 -46 -25 -53 15 -15 44 9 41 34 -2 11 2 21 7
21 6 0 11 -4 11 -10 0 -17 17 -11 22 8 6 21 -1 42 -12 42 -5 0 -24 -19 -44
-42z"></path>
<path d="M5340 6407 c0 -8 6 -20 14 -26 12 -10 13 -8 9 9 -7 25 -23 37 -23 17z"></path>
<path d="M1385 6342 c-104 -100 -237 -274 -220 -290 7 -8 26 14 67 81 36 57
178 220 186 213 3 -4 0 -12 -6 -18 -7 -7 -12 -16 -12 -20 0 -17 16 -6 48 32
l33 40 -28 0 c-19 0 -41 -13 -68 -38z"></path>
<path d="M5470 6146 c0 -9 5 -16 10 -16 6 0 10 4 10 9 0 6 -4 13 -10 16 -5 3
-10 -1 -10 -9z"></path>
<path d="M1121 6004 c-12 -15 -21 -33 -21 -40 0 -22 28 -4 34 22 4 13 13 24
21 24 8 0 15 5 15 10 0 19 -29 10 -49 -16z"></path>
<path d="M5550 5976 c0 -8 5 -18 10 -21 6 -3 10 1 10 9 0 8 -4 18 -10 21 -5 3
-10 -1 -10 -9z"></path>
<path d="M1060 5925 c-13 -14 -21 -27 -18 -30 2 -3 15 6 28 20 13 14 21 27 18
30 -2 3 -15 -6 -28 -20z"></path>
<path d="M995 5859 c-11 -17 1 -21 15 -4 8 9 8 15 2 15 -6 0 -14 -5 -17 -11z"></path>
<path d="M1210 5755 c-7 -9 -11 -18 -8 -20 3 -3 11 1 18 10 7 9 11 18 8 20 -3
3 -11 -1 -18 -10z"></path>
<path d="M848 5647 c-58 -91 -80 -136 -117 -237 -37 -100 -154 -323 -233 -443
-32 -49 -58 -97 -58 -106 0 -19 -50 -169 -86 -259 -14 -35 -23 -67 -19 -70 8
-8 27 23 37 58 4 14 26 81 50 149 34 97 49 126 66 132 19 7 21 11 11 28 -11
16 -7 26 23 67 34 48 86 138 136 239 14 28 33 61 42 75 10 14 28 57 40 95 32
98 81 199 129 270 23 33 41 63 41 68 0 20 -19 0 -62 -66z"></path>
<path d="M1142 5538 c2 -6 11 -12 20 -14 11 -1 15 3 11 12 -6 17 -36 19 -31 2z"></path>
<path d="M3960 5375 c0 -8 2 -15 4 -15 2 0 6 7 10 15 3 8 1 15 -4 15 -6 0 -10
-7 -10 -15z"></path>
<path d="M22 5348 c2 -14 16 -30 37 -40 19 -10 39 -24 43 -33 10 -17 64 -20
104 -5 l27 11 -47 44 c-44 43 -49 45 -107 45 -57 0 -60 -1 -57 -22z m130 -15
c10 -9 18 -22 18 -30 0 -18 -44 -17 -60 2 -7 8 -21 15 -31 15 -19 0 -32 13
-22 24 13 12 77 6 95 -11z"></path>
<path d="M195 5350 c3 -5 11 -10 16 -10 6 0 7 5 4 10 -3 6 -11 10 -16 10 -6 0
-7 -4 -4 -10z"></path>
<path d="M3970 5320 c0 -5 5 -10 10 -10 6 0 10 5 10 10 0 6 -4 10 -10 10 -5 0
-10 -4 -10 -10z"></path>
<path d="M4000 5280 c0 -5 5 -10 10 -10 6 0 10 5 10 10 0 6 -4 10 -10 10 -5 0
-10 -4 -10 -10z"></path>
<path d="M3946 5271 c-4 -7 -5 -15 -2 -18 9 -9 19 4 14 18 -4 11 -6 11 -12 0z"></path>
<path d="M4285 5270 c3 -5 11 -10 16 -10 6 0 7 5 4 10 -3 6 -11 10 -16 10 -6
0 -7 -4 -4 -10z"></path>
<path d="M4360 5221 c0 -5 5 -13 10 -16 6 -3 10 -2 10 4 0 5 -4 13 -10 16 -5
3 -10 2 -10 -4z"></path>
<path d="M3420 5200 c0 -6 11 -10 24 -10 13 0 44 -3 70 -6 36 -5 46 -4 46 7 0
10 -18 15 -70 16 -41 2 -70 -1 -70 -7z"></path>
<path d="M3680 5146 c0 -2 7 -6 15 -10 8 -3 15 -1 15 4 0 6 -7 10 -15 10 -8 0
-15 -2 -15 -4z"></path>
<path d="M3760 5141 c-22 -6 -23 -8 -7 -14 30 -11 47 -8 47 8 0 16 -2 17 -40
6z"></path>
<path d="M3890 5093 c0 -26 1 -26 15 -7 19 25 19 34 0 34 -10 0 -15 -10 -15
-27z"></path>
<path d="M3836 5065 c-3 -8 -1 -15 4 -15 6 0 10 7 10 15 0 8 -2 15 -4 15 -2 0
-6 -7 -10 -15z"></path>
<path d="M4210 5051 c0 -5 7 -12 16 -15 24 -9 28 -7 14 9 -14 17 -30 20 -30 6z"></path>
<path d="M4510 5051 c0 -5 7 -11 15 -15 9 -3 15 0 15 9 0 8 -7 15 -15 15 -8 0
-15 -4 -15 -9z"></path>
<path d="M3795 5040 c-3 -5 1 -10 9 -10 9 0 16 5 16 10 0 6 -4 10 -9 10 -6 0
-13 -4 -16 -10z"></path>
<path d="M790 4973 c-8 -3 -22 -13 -31 -22 -16 -15 -16 -16 7 -16 13 0 24 3
24 7 0 4 9 10 20 13 11 3 20 11 20 16 0 10 -17 11 -40 2z"></path>
<path d="M805 4940 c-3 -6 -3 -10 1 -10 4 0 -1 -9 -11 -20 -10 -11 -16 -23
-13 -26 7 -7 46 17 52 31 5 14 -21 37 -29 25z"></path>
<path d="M6097 4943 c-3 -5 -2 -15 2 -22 5 -7 7 -21 4 -30 -2 -9 13 -63 33
-121 20 -58 49 -142 65 -188 16 -46 29 -91 29 -101 0 -31 25 -45 52 -30 20 11
20 14 6 17 -12 2 -25 26 -39 75 -12 40 -30 90 -39 112 -10 22 -30 81 -44 130
-15 50 -34 104 -44 120 -9 17 -15 32 -13 33 1 2 0 6 -2 8 -3 3 -7 1 -10 -3z"></path>
<path d="M757 4824 c-3 -3 -3 -13 0 -21 5 -12 7 -12 14 -1 15 23 4 40 -14 22z"></path>
<path d="M2675 4721 c-11 -5 -43 -11 -70 -15 -94 -12 -115 -20 -170 -69 -34
-30 -36 -35 -16 -30 17 4 22 3 17 -5 -4 -7 -1 -12 8 -12 19 0 20 -5 5 -32 -10
-18 -9 -20 5 -15 8 3 18 2 21 -2 7 -12 -51 -32 -70 -25 -10 4 -15 0 -15 -11 0
-13 5 -16 23 -11 12 3 41 9 65 13 28 4 46 13 53 25 9 16 18 19 45 14 100 -18
106 -18 101 -9 -4 6 -21 13 -39 17 -30 6 -30 7 -12 20 13 10 24 11 37 4 13 -7
29 -5 55 8 25 12 37 13 40 5 2 -6 9 -8 15 -4 12 8 16 9 70 12 41 2 32 17 -15
26 -39 7 -41 8 -18 15 14 5 21 9 15 9 -14 2 65 41 83 41 36 0 -5 15 -61 23
-114 15 -152 17 -172 8z"></path>
<path d="M6233 4708 c2 -7 13 -39 23 -70 10 -32 22 -58 27 -58 5 0 7 6 4 13
-2 6 -13 38 -23 70 -10 31 -22 57 -27 57 -5 0 -7 -6 -4 -12z"></path>
<path d="M2351 4683 c-24 -30 -22 -39 6 -24 10 5 26 12 36 15 9 3 17 12 17 21
0 24 -37 17 -59 -12z"></path>
<path d="M721 4644 c0 -11 3 -14 6 -6 3 7 2 16 -1 19 -3 4 -6 -2 -5 -13z"></path>
<path d="M2915 4630 c3 -5 10 -10 16 -10 5 0 9 5 9 10 0 6 -7 10 -16 10 -8 0
-12 -4 -9 -10z"></path>
<path d="M3880 4625 c-10 -12 -10 -15 3 -15 8 0 20 7 27 15 10 12 10 15 -3 15
-8 0 -20 -7 -27 -15z"></path>
<path d="M3955 4597 c-22 -12 -44 -37 -45 -51 0 -5 11 0 23 13 25 23 51 21 61
-5 4 -10 14 -12 31 -8 34 8 75 -3 75 -21 0 -19 9 -19 32 1 14 14 20 14 33 4
16 -14 85 -6 85 10 0 5 -12 13 -26 16 -14 4 -45 17 -69 29 -33 18 -59 23 -112
23 -38 0 -77 -5 -88 -11z m105 -27 c0 -5 -9 -10 -20 -10 -11 0 -20 5 -20 10 0
6 9 10 20 10 11 0 20 -4 20 -10z"></path>
<path d="M4282 4540 c0 -31 4 -40 18 -40 13 0 16 6 12 27 -3 15 -11 33 -18 40
-10 11 -13 6 -12 -27z"></path>
<path d="M2800 4540 c0 -5 5 -10 10 -10 6 0 10 5 10 10 0 6 -4 10 -10 10 -5 0
-10 -4 -10 -10z"></path>
<path d="M3955 4540 c3 -5 10 -10 16 -10 5 0 9 5 9 10 0 6 -7 10 -16 10 -8 0
-12 -4 -9 -10z"></path>
<path d="M4021 4516 c-11 -13 -6 -46 8 -46 3 0 18 11 34 24 23 20 25 25 11 30
-25 9 -41 7 -53 -8z"></path>
<path d="M2306 4489 c-15 -12 -25 -23 -23 -25 8 -8 66 18 71 32 8 21 -17 17
-48 -7z"></path>
<path d="M4330 4480 c0 -5 -7 -10 -15 -10 -23 0 -18 -18 7 -26 12 -3 28 -12
35 -18 40 -36 43 -37 43 -23 0 8 -11 26 -25 41 -14 15 -25 31 -25 37 0 5 -4 9
-10 9 -5 0 -10 -4 -10 -10z"></path>
<path d="M4160 4450 c0 -5 7 -10 16 -10 8 0 12 5 9 10 -3 6 -10 10 -16 10 -5
0 -9 -4 -9 -10z"></path>
<path d="M4235 4449 c-10 -15 3 -25 16 -12 7 7 7 13 1 17 -6 3 -14 1 -17 -5z"></path>
<path d="M297 4428 c-6 -21 -2 -36 7 -27 10 11 16 49 8 49 -5 0 -12 -10 -15
-22z"></path>
<path d="M2300 4430 c0 -5 5 -10 10 -10 6 0 10 5 10 10 0 6 -4 10 -10 10 -5 0
-10 -4 -10 -10z"></path>
<path d="M4295 4400 c-3 -6 1 -13 10 -16 19 -8 30 0 20 15 -8 14 -22 14 -30 1z"></path>
<path d="M2145 4380 c-14 -16 -15 -20 -4 -20 16 0 39 19 39 32 0 14 -16 9 -35
-12z"></path>
<path d="M262 4324 c-13 -31 -21 -59 -18 -61 12 -12 39 18 41 43 0 16 4 39 9
52 16 47 -10 19 -32 -34z"></path>
<path d="M6680 4360 c0 -5 7 -10 15 -10 8 0 15 5 15 10 0 6 -7 10 -15 10 -8 0
-15 -4 -15 -10z"></path>
<path d="M2080 4340 c0 -5 7 -10 15 -10 8 0 15 5 15 10 0 6 -7 10 -15 10 -8 0
-15 -4 -15 -10z"></path>
<path d="M6650 4340 c0 -5 5 -10 10 -10 6 0 10 5 10 10 0 6 -4 10 -10 10 -5 0
-10 -4 -10 -10z"></path>
<path d="M4650 4329 c0 -5 5 -7 10 -4 6 3 10 8 10 11 0 2 -4 4 -10 4 -5 0 -10
-5 -10 -11z"></path>
<path d="M2026 4283 c-24 -39 -25 -63 0 -42 12 9 44 65 44 76 0 1 -4 3 -10 3
-5 0 -20 -17 -34 -37z"></path>
<path d="M230 4220 c0 -11 5 -20 10 -20 6 0 10 9 10 20 0 11 -4 20 -10 20 -5
0 -10 -9 -10 -20z"></path>
<path d="M220 4165 c0 -8 5 -15 10 -15 6 0 10 7 10 15 0 8 -4 15 -10 15 -5 0
-10 -7 -10 -15z"></path>
<path d="M4150 4120 c0 -5 11 -10 25 -10 14 0 25 5 25 10 0 6 -11 10 -25 10
-14 0 -25 -4 -25 -10z"></path>
<path d="M210 4095 c0 -14 5 -25 10 -25 6 0 10 11 10 25 0 14 -4 25 -10 25 -5
0 -10 -11 -10 -25z"></path>
<path d="M2360 4090 c0 -5 24 -10 53 -11 103 -2 130 -6 141 -21 7 -10 22 -14
42 -11 18 3 42 -1 55 -10 13 -8 35 -17 49 -21 14 -3 53 -31 88 -62 72 -65 85
-55 15 11 -65 61 -143 100 -235 119 -87 18 -208 21 -208 6z"></path>
<path d="M2251 4079 c-25 -5 -48 -14 -52 -21 -6 -9 -11 -9 -23 1 -12 11 -19 6
-40 -28 -30 -47 -33 -83 -10 -106 15 -14 15 -18 0 -40 -15 -23 -15 -25 5 -35
11 -6 35 -10 52 -9 62 4 87 -1 87 -16 0 -9 11 -20 25 -25 14 -5 25 -14 25 -20
0 -5 9 -10 19 -10 11 0 21 -5 23 -11 3 -8 14 -6 36 5 18 9 36 15 41 12 16 -10
111 -16 111 -7 0 5 13 14 30 19 34 12 70 65 70 104 0 55 6 57 74 24 65 -32
146 -91 146 -107 0 -5 -30 -9 -67 -9 -73 0 -173 -16 -213 -33 -23 -10 -19 -12
35 -17 33 -3 95 1 138 8 58 10 82 10 92 2 21 -18 52 7 52 42 0 32 -17 51 -99
113 -99 74 -258 100 -510 83 -75 -5 -78 -4 -78 17 0 24 26 40 84 51 20 3 39
10 42 15 6 11 -35 10 -95 -2z m124 -160 c0 -29 8 -57 23 -81 15 -24 19 -38 11
-38 -29 0 -169 104 -169 126 0 11 104 44 125 40 6 -2 10 -23 10 -47z m233 13
c4 -26 -21 -40 -42 -23 -9 7 -31 9 -67 4 -41 -6 -56 -13 -65 -31 l-11 -23 -17
26 c-17 25 -17 27 1 41 11 8 44 13 85 14 37 0 70 5 73 11 11 17 40 5 43 -19z"></path>
<path d="M4145 4051 c-7 -12 12 -24 25 -16 11 7 4 25 -10 25 -5 0 -11 -4 -15
-9z"></path>
<path d="M4392 4047 c7 -7 31 -22 53 -33 25 -13 41 -29 43 -42 2 -12 10 -22
17 -22 13 0 37 -34 51 -72 6 -16 24 -26 24 -13 0 20 -44 115 -53 115 -7 0 -25
14 -42 31 -30 31 -63 49 -91 49 -13 0 -13 -2 -2 -13z"></path>
<path d="M200 4010 c0 -16 5 -30 10 -30 6 0 10 14 10 30 0 17 -4 30 -10 30 -5
0 -10 -13 -10 -30z"></path>
<path d="M476 3981 c-4 -5 -2 -12 3 -15 5 -4 12 -2 15 3 4 5 2 12 -3 15 -5 4
-12 2 -15 -3z"></path>
<path d="M4010 3960 c-19 -11 -30 -19 -25 -19 6 0 26 8 45 19 19 11 31 19 25
19 -5 0 -26 -8 -45 -19z"></path>
<path d="M181 3926 c-7 -8 -16 -41 -21 -73 -4 -32 -11 -75 -15 -95 -5 -24 -3
-38 3 -38 12 0 18 23 32 129 6 40 13 77 16 82 8 14 -2 10 -15 -5z"></path>
<path d="M4079 3919 c-59 -13 -141 -55 -207 -103 -69 -51 -90 -79 -90 -119 0
-22 8 -31 33 -41 18 -8 66 -37 107 -65 138 -94 305 -143 433 -127 52 7 64 13
97 48 50 53 52 90 4 53 -11 -8 -27 -15 -37 -15 -9 0 -30 -7 -45 -15 -38 -20
-73 -19 -81 2 -5 14 -8 13 -15 -6 -7 -21 -13 -22 -61 -18 -77 8 -108 14 -120
26 -6 6 -19 11 -29 11 -29 0 -141 52 -166 77 -7 7 -20 13 -28 13 -8 0 -14 5
-14 10 0 13 7 13 38 -4 76 -39 131 -54 205 -55 40 0 59 4 63 13 3 8 19 16 35
20 36 7 76 45 84 80 3 14 7 37 10 51 3 14 12 25 21 25 14 0 124 -65 124 -74 0
-2 -16 -16 -37 -32 -22 -17 -71 -36 -127 -51 -49 -13 -92 -26 -95 -28 -13 -13
85 -2 145 16 50 15 79 32 108 60 35 36 40 38 56 24 23 -21 37 -19 44 8 l6 22
13 -25 c9 -18 24 -27 52 -31 22 -4 42 -5 44 -4 9 9 -13 25 -33 25 -13 0 -31
12 -45 30 -12 17 -27 30 -34 28 -7 -1 -29 6 -49 15 -79 36 -104 46 -131 53
-16 3 -31 12 -33 18 -3 8 -52 11 -157 10 -164 -1 -203 -6 -250 -29 -17 -8 -32
-13 -34 -11 -2 2 31 21 74 43 70 36 84 40 132 35 39 -3 56 -1 62 9 8 12 11 12
19 -1 9 -13 12 -13 21 3 12 21 29 21 127 1 76 -15 146 -47 189 -87 28 -25 40
-16 25 18 -14 30 -93 70 -177 90 -65 16 -218 18 -276 4z m-45 -136 c-12 -28
-9 -67 10 -103 9 -18 14 -36 11 -39 -3 -3 -27 3 -53 13 -26 10 -77 24 -114 30
-37 7 -70 15 -74 18 -11 11 90 77 118 78 15 0 30 5 33 10 3 6 22 10 42 10 30
0 34 -3 27 -17z m191 -13 c0 -17 -5 -24 -15 -21 -25 6 -83 6 -116 -1 -23 -5
-33 -2 -42 13 -11 18 -9 19 35 21 86 3 92 4 100 11 15 15 38 1 38 -23z"></path>
<path d="M3535 3890 c3 -5 10 -10 16 -10 5 0 9 5 9 10 0 6 -7 10 -16 10 -8 0
-12 -4 -9 -10z"></path>
<path d="M6417 3833 c-16 -27 23 -57 190 -148 98 -54 223 -123 278 -154 55
-31 103 -57 107 -59 5 -2 8 11 8 30 0 28 -6 36 -37 53 -21 11 -72 38 -113 61
-41 22 -147 78 -235 124 -88 45 -164 87 -169 91 -12 11 -23 11 -29 2z"></path>
<path d="M3010 3750 c0 -5 5 -10 10 -10 6 0 10 5 10 10 0 6 -4 10 -10 10 -5 0
-10 -4 -10 -10z"></path>
<path d="M2790 3731 c-57 -23 -132 -41 -170 -41 -16 0 -32 -5 -35 -11 -4 -6
-14 -8 -22 -5 -9 4 -21 0 -27 -9 -8 -11 -38 -17 -103 -21 -136 -10 -117 -27
25 -22 95 3 132 9 197 32 108 38 195 77 195 87 0 12 -7 11 -60 -10z"></path>
<path d="M2977 3733 c-12 -12 -7 -22 8 -17 8 4 15 10 15 15 0 11 -14 12 -23 2z"></path>
<path d="M2540 3710 c0 -5 5 -10 10 -10 6 0 10 5 10 10 0 6 -4 10 -10 10 -5 0
-10 -4 -10 -10z"></path>
<path d="M2924 3685 c-51 -45 -116 -95 -125 -95 -5 0 -9 -7 -9 -15 0 -8 2 -15
5 -15 11 0 110 78 139 109 37 38 28 52 -10 16z"></path>
<path d="M130 3640 c0 -27 5 -50 10 -50 6 0 10 23 10 50 0 28 -4 50 -10 50 -5
0 -10 -22 -10 -50z"></path>
<path d="M365 3670 c-3 -5 -1 -10 4 -10 6 0 11 5 11 10 0 6 -2 10 -4 10 -3 0
-8 -4 -11 -10z"></path>
<path d="M130 3538 c0 -13 -16 -72 -35 -131 -39 -119 -39 -121 -26 -112 10 6
39 65 61 125 18 48 25 140 11 140 -6 0 -11 -10 -11 -22z"></path>
<path d="M6490 3550 c0 -11 237 -168 283 -188 15 -7 38 -12 50 -12 21 1 22 1
3 15 -11 8 -26 15 -33 15 -7 0 -32 12 -55 28 -126 83 -234 151 -240 152 -5 0
-8 -4 -8 -10z"></path>
<path d="M6766 3482 c35 -31 205 -133 215 -130 13 4 -192 138 -212 138 -8 0
-9 -3 -3 -8z"></path>
<path d="M4080 3460 c0 -5 5 -10 10 -10 6 0 10 5 10 10 0 6 -4 10 -10 10 -5 0
-10 -4 -10 -10z"></path>
<path d="M6910 3330 c0 -5 7 -10 16 -10 8 0 12 5 9 10 -3 6 -10 10 -16 10 -5
0 -9 -4 -9 -10z"></path>
<path d="M6472 3268 c-1 -54 9 -72 58 -99 22 -13 40 -26 40 -31 0 -4 6 -8 14
-8 8 0 16 -10 18 -22 2 -12 15 -29 30 -37 15 -9 53 -35 85 -59 194 -143 283
-201 283 -183 0 11 -28 36 -72 67 -211 143 -382 294 -419 370 -13 24 -26 44
-30 44 -3 0 -7 -19 -7 -42z"></path>
<path d="M47 3203 c-4 -3 -7 -11 -7 -17 0 -6 5 -5 12 2 6 6 9 14 7 17 -3 3 -9
2 -12 -2z"></path>
<path d="M2820 3170 c-16 -17 -32 -41 -36 -53 -3 -12 -12 -29 -19 -37 -16 -17
-30 -70 -20 -70 16 0 43 45 34 56 -6 8 -5 13 4 17 22 8 88 105 76 112 -5 4
-23 -8 -39 -25z"></path>
<path d="M1975 3139 c-4 -6 -5 -13 -2 -16 7 -7 27 6 27 18 0 12 -17 12 -25 -2z"></path>
<path d="M100 2950 c0 -5 5 -10 10 -10 6 0 10 5 10 10 0 6 -4 10 -10 10 -5 0
-10 -4 -10 -10z"></path>
<path d="M2696 2925 c4 -8 8 -15 10 -15 2 0 4 7 4 15 0 8 -4 15 -10 15 -5 0
-7 -7 -4 -15z"></path>
<path d="M2942 2883 c-26 -5 -37 -23 -46 -77 -7 -38 -7 -38 -47 -32 -42 7 -49
-2 -21 -26 35 -30 141 -7 128 28 -9 23 13 26 36 5 27 -26 29 -26 72 -1 57 34
56 64 -5 96 -27 13 -69 16 -117 7z"></path>
<path d="M3493 2818 c-49 -23 -53 -35 -17 -48 46 -18 92 -12 105 12 8 14 14
18 17 10 5 -15 38 -16 48 0 12 18 -34 48 -75 48 -20 -1 -55 -10 -78 -22z"></path>
<path d="M70 2805 c-11 -14 -6 -55 8 -55 4 0 8 16 9 35 2 39 0 41 -17 20z"></path>
<path d="M3800 2786 c-11 -31 -87 -82 -131 -88 -19 -3 -44 -1 -56 5 -30 13
-76 -6 -71 -30 5 -25 55 -35 118 -22 40 8 67 22 99 50 55 49 89 109 61 109 -6
0 -15 -11 -20 -24z"></path>
<path d="M3205 2790 c3 -5 8 -10 11 -10 2 0 4 5 4 10 0 6 -5 10 -11 10 -5 0
-7 -4 -4 -10z"></path>
<path d="M2770 2765 c0 -8 7 -15 15 -15 8 0 15 4 15 9 0 5 -7 11 -15 15 -9 3
-15 0 -15 -9z"></path>
<path d="M3375 2740 c-10 -11 -26 -19 -35 -18 -9 2 -24 -3 -34 -11 -9 -7 -34
-14 -57 -14 -50 0 -47 -21 3 -25 41 -4 158 51 158 74 0 20 -14 17 -35 -6z"></path>
<path d="M62 2721 c-10 -16 -11 -26 -3 -34 15 -15 23 -3 19 30 l-3 28 -13 -24z"></path>
<path d="M2900 2700 c0 -5 5 -10 10 -10 6 0 10 5 10 10 0 6 -4 10 -10 10 -5 0
-10 -4 -10 -10z"></path>
<path d="M50 2635 c-10 -12 -10 -15 3 -15 19 0 31 16 18 24 -5 3 -14 -1 -21
-9z"></path>
<path d="M61 2524 c0 -11 3 -14 6 -6 3 7 2 16 -1 19 -3 4 -6 -2 -5 -13z"></path>
<path d="M730 2520 c0 -5 5 -10 11 -10 5 0 7 5 4 10 -3 6 -8 10 -11 10 -2 0
-4 -4 -4 -10z"></path>
<path d="M57 2466 c-6 -15 1 -26 15 -26 11 0 10 27 -1 34 -5 3 -11 0 -14 -8z"></path>
<path d="M600 2436 c0 -8 5 -18 10 -21 6 -3 10 1 10 9 0 8 -4 18 -10 21 -5 3
-10 -1 -10 -9z"></path>
<path d="M840 2440 c0 -5 5 -10 10 -10 6 0 10 5 10 10 0 6 -4 10 -10 10 -5 0
-10 -4 -10 -10z"></path>
<path d="M3232 2425 c-12 -9 -31 -13 -44 -10 -16 4 -27 0 -35 -13 -11 -18 -9
-19 35 -14 26 3 50 9 53 15 4 5 16 0 28 -12 24 -24 68 -27 137 -10 47 12 55
34 13 34 -13 0 -28 3 -34 6 -5 4 -28 4 -50 0 -26 -5 -47 -3 -61 6 -17 11 -24
10 -42 -2z"></path>
<path d="M60 2365 c0 -31 -5 -47 -15 -51 -22 -9 -18 -42 6 -49 11 -4 22 -5 24
-3 4 4 8 93 6 126 -2 42 -21 22 -21 -23z"></path>
<path d="M3180 2280 c0 -5 5 -10 10 -10 6 0 10 5 10 10 0 6 -4 10 -10 10 -5 0
-10 -4 -10 -10z"></path>
<path d="M3114 2215 c-10 -8 -14 -15 -8 -15 5 0 19 7 30 15 10 8 14 15 8 15
-5 0 -19 -7 -30 -15z"></path>
<path d="M3330 2159 c0 -5 5 -7 10 -4 6 3 10 8 10 11 0 2 -4 4 -10 4 -5 0 -10
-5 -10 -11z"></path>
<path d="M2900 2140 c0 -5 5 -10 11 -10 5 0 7 5 4 10 -3 6 -8 10 -11 10 -2 0
-4 -4 -4 -10z"></path>
<path d="M3330 2115 c0 -8 5 -15 10 -15 6 0 10 7 10 15 0 8 -4 15 -10 15 -5 0
-10 -7 -10 -15z"></path>
<path d="M2792 2099 c2 -7 10 -15 17 -17 8 -3 12 1 9 9 -2 7 -10 15 -17 17 -8
3 -12 -1 -9 -9z"></path>
<path d="M2930 2100 c0 -13 18 -22 24 -11 3 5 -1 11 -9 15 -8 3 -15 1 -15 -4z"></path>
<path d="M3640 2020 c0 -5 7 -10 15 -10 8 0 15 5 15 10 0 6 -7 10 -15 10 -8 0
-15 -4 -15 -10z"></path>
<path d="M2920 1990 c0 -5 5 -10 10 -10 6 0 10 5 10 10 0 6 -4 10 -10 10 -5 0
-10 -4 -10 -10z"></path>
<path d="M2920 1950 c0 -5 5 -10 10 -10 6 0 10 5 10 10 0 6 -4 10 -10 10 -5 0
-10 -4 -10 -10z"></path>
<path d="M3290 1900 c0 -5 7 -10 15 -10 8 0 15 5 15 10 0 6 -7 10 -15 10 -8 0
-15 -4 -15 -10z"></path>
<path d="M3215 1893 c-46 -7 -55 -23 -13 -23 42 0 68 8 68 21 0 9 -2 9 -55 2z"></path>
<path d="M110 1881 c-25 -7 -25 -7 -4 -19 21 -11 44 -1 44 20 0 9 -5 9 -40 -1z"></path>
<path d="M3090 1880 c0 -5 7 -10 16 -10 8 0 12 5 9 10 -3 6 -10 10 -16 10 -5
0 -9 -4 -9 -10z"></path>
<path d="M575 1830 c3 -5 8 -10 11 -10 2 0 4 5 4 10 0 6 -5 10 -11 10 -5 0 -7
-4 -4 -10z"></path>
<path d="M3510 1790 c0 -5 5 -10 10 -10 6 0 10 5 10 10 0 6 -4 10 -10 10 -5 0
-10 -4 -10 -10z"></path>
<path d="M3554 1749 c-22 -17 -56 -40 -78 -51 -27 -14 -35 -23 -28 -30 7 -7
35 5 91 43 43 29 77 57 75 61 -9 13 -20 9 -60 -23z"></path>
<path d="M3170 1706 c0 -14 5 -26 10 -26 6 0 10 9 10 19 0 11 -4 23 -10 26 -6
4 -10 -5 -10 -19z"></path>
<path d="M6034 1574 c38 -35 71 -62 74 -59 9 9 -111 125 -128 125 -8 -1 15
-29 54 -66z"></path>
<path d="M3427 1594 c-3 -3 -3 -12 0 -20 3 -8 -3 -24 -13 -36 -22 -25 -1 -16
33 15 17 15 20 23 12 34 -12 14 -22 16 -32 7z"></path>
<path d="M5870 1511 c0 -12 9 -14 125 -36 93 -17 95 -18 95 -7 0 5 -44 17 -97
27 -54 10 -104 20 -110 22 -7 3 -13 0 -13 -6z"></path>
<path d="M3070 1399 c0 -5 5 -7 10 -4 6 3 10 8 10 11 0 2 -4 4 -10 4 -5 0 -10
-5 -10 -11z"></path>
<path d="M3380 1360 c0 -5 5 -10 10 -10 6 0 10 5 10 10 0 6 -4 10 -10 10 -5 0
-10 -4 -10 -10z"></path>
<path d="M3617 1283 c6 -42 10 -49 19 -40 9 9 -5 77 -16 77 -5 0 -6 -17 -3
-37z"></path>
<path d="M3620 1210 c0 -11 5 -20 10 -20 6 0 10 9 10 20 0 11 -4 20 -10 20 -5
0 -10 -9 -10 -20z"></path>
<path d="M3680 1175 c-5 -14 -17 -28 -25 -31 -8 -4 -15 -11 -15 -17 0 -6 -6
-18 -14 -26 -8 -9 -16 -29 -18 -46 -5 -48 23 -37 41 15 9 25 26 61 39 81 25
41 27 49 12 49 -6 0 -15 -11 -20 -25z"></path>
<path d="M3290 1130 c0 -11 5 -20 10 -20 6 0 10 9 10 20 0 11 -4 20 -10 20 -5
0 -10 -9 -10 -20z"></path>
<path d="M3430 990 c0 -5 5 -10 10 -10 6 0 10 5 10 10 0 6 -4 10 -10 10 -5 0
-10 -4 -10 -10z"></path>
<path d="M3360 895 c0 -8 5 -15 10 -15 6 0 10 7 10 15 0 8 -4 15 -10 15 -5 0
-10 -7 -10 -15z"></path>
<path d="M5258 853 c-19 -3 -25 -9 -21 -19 3 -9 0 -14 -7 -12 -7 2 -15 -3 -17
-11 -4 -10 0 -11 17 -6 17 5 21 3 19 -12 -1 -10 1 -26 5 -35 7 -14 13 -40 15
-60 1 -4 7 -13 14 -20 6 -8 17 -23 24 -33 6 -11 16 -19 22 -18 6 2 11 -1 11
-5 0 -5 6 -16 13 -26 14 -19 47 -13 47 10 0 8 5 14 10 14 6 0 10 6 10 14 0 8
9 31 21 50 22 38 22 101 0 101 -7 0 -18 8 -25 18 -7 9 -17 17 -22 17 -6 0 -27
9 -49 20 -22 11 -44 19 -50 19 -5 -1 -22 -4 -37 -6z m132 -247 c0 -3 -4 -8
-10 -11 -5 -3 -10 -1 -10 4 0 6 5 11 10 11 6 0 10 -2 10 -4z"></path>
<path d="M5729 693 c-3 -51 -9 -109 -14 -120 -2 -7 1 -15 6 -19 6 -3 9 -15 6
-25 -3 -11 -2 -17 3 -14 4 2 10 -16 14 -41 9 -67 41 -132 71 -146 22 -10 36
-7 98 18 46 18 73 35 75 47 2 9 -14 51 -35 92 -21 42 -42 84 -48 95 -5 10 -19
21 -32 25 -14 3 -20 11 -17 19 3 9 -6 19 -25 27 -17 8 -31 17 -31 21 0 7 -53
38 -65 38 -3 0 -5 -8 -6 -17z"></path>
<path d="M5920 96 c0 -2 7 -7 16 -10 8 -3 12 -2 9 4 -6 10 -25 14 -25 6z"></path>
<path d="M3485 30 c-7 -12 2 -30 16 -30 12 0 12 27 0 35 -5 3 -12 1 -16 -5z"></path>
</g>
</svg>